<mxfile host="app.diagrams.net" agent="Mozilla/5.0 (Windows NT 10.0; Win64; x64) AppleWebKit/537.36 (KHTML, like Gecko) Chrome/138.0.0.0 Safari/537.36 Edg/138.0.0.0" version="28.1.0" pages="10">
  <diagram name="ModeloDominio" id="K_SPVwELb6RBCzlSe16Q">
    <mxGraphModel dx="791" dy="489" grid="1" gridSize="10" guides="1" tooltips="1" connect="1" arrows="1" fold="1" page="1" pageScale="1" pageWidth="1169" pageHeight="827" math="0" shadow="0">
      <root>
        <mxCell id="0" />
        <mxCell id="1" parent="0" />
        <mxCell id="kh0cykDb67qDTLCyd-Wk-1" value="&lt;p style=&quot;margin:0px;margin-top:4px;text-align:center;&quot;&gt;&lt;b&gt;Usuario&lt;/b&gt;&lt;/p&gt;&lt;hr size=&quot;1&quot; style=&quot;border-style:solid;&quot;&gt;&lt;p style=&quot;margin:0px;margin-left:4px;&quot;&gt;- nickname: String&lt;/p&gt;&lt;p style=&quot;margin:0px;margin-left:4px;&quot;&gt;- nombre: String&lt;/p&gt;&lt;p style=&quot;margin:0px;margin-left:4px;&quot;&gt;- apellido: String&lt;/p&gt;&lt;p style=&quot;margin:0px;margin-left:4px;&quot;&gt;- email: String&lt;/p&gt;&lt;p style=&quot;margin:0px;margin-left:4px;&quot;&gt;- fechaNacimiento: Date&lt;/p&gt;" style="verticalAlign=top;align=left;overflow=fill;html=1;whiteSpace=wrap;" parent="1" vertex="1">
          <mxGeometry x="315" y="184" width="160" height="110" as="geometry" />
        </mxCell>
        <mxCell id="kh0cykDb67qDTLCyd-Wk-15" style="edgeStyle=orthogonalEdgeStyle;rounded=0;orthogonalLoop=1;jettySize=auto;html=1;entryX=0;entryY=0.5;entryDx=0;entryDy=0;endArrow=none;startFill=0;" parent="1" source="kh0cykDb67qDTLCyd-Wk-2" target="kh0cykDb67qDTLCyd-Wk-13" edge="1">
          <mxGeometry relative="1" as="geometry">
            <Array as="points">
              <mxPoint x="275" y="599" />
            </Array>
          </mxGeometry>
        </mxCell>
        <mxCell id="kh0cykDb67qDTLCyd-Wk-2" value="&lt;p style=&quot;margin:0px;margin-top:4px;text-align:center;&quot;&gt;&lt;b&gt;Turista&lt;/b&gt;&lt;/p&gt;&lt;hr size=&quot;1&quot; style=&quot;border-style:solid;&quot;&gt;&lt;p style=&quot;margin:0px;margin-left:4px;&quot;&gt;- nacionalidad: String&lt;/p&gt;" style="verticalAlign=top;align=left;overflow=fill;html=1;whiteSpace=wrap;" parent="1" vertex="1">
          <mxGeometry x="195" y="384" width="160" height="50" as="geometry" />
        </mxCell>
        <mxCell id="kh0cykDb67qDTLCyd-Wk-3" value="&lt;p style=&quot;margin:0px;margin-top:4px;text-align:center;&quot;&gt;&lt;b&gt;Proveedor&lt;/b&gt;&lt;/p&gt;&lt;hr size=&quot;1&quot; style=&quot;border-style:solid;&quot;&gt;&lt;p style=&quot;margin:0px;margin-left:4px;&quot;&gt;- descripcion: String&lt;/p&gt;&lt;p style=&quot;margin:0px;margin-left:4px;&quot;&gt;- sitioWeb: SitioWeb&lt;/p&gt;" style="verticalAlign=top;align=left;overflow=fill;html=1;whiteSpace=wrap;" parent="1" vertex="1">
          <mxGeometry x="415" y="384" width="160" height="70" as="geometry" />
        </mxCell>
        <mxCell id="kh0cykDb67qDTLCyd-Wk-4" value="" style="endArrow=none;html=1;rounded=0;entryX=0.5;entryY=0;entryDx=0;entryDy=0;" parent="1" target="kh0cykDb67qDTLCyd-Wk-3" edge="1">
          <mxGeometry width="50" height="50" relative="1" as="geometry">
            <mxPoint x="275" y="385" as="sourcePoint" />
            <mxPoint x="505" y="354" as="targetPoint" />
            <Array as="points">
              <mxPoint x="275" y="354" />
              <mxPoint x="495" y="354" />
            </Array>
          </mxGeometry>
        </mxCell>
        <mxCell id="kh0cykDb67qDTLCyd-Wk-5" value="" style="endArrow=block;html=1;rounded=0;entryX=0.5;entryY=1;entryDx=0;entryDy=0;endFill=0;" parent="1" target="kh0cykDb67qDTLCyd-Wk-1" edge="1">
          <mxGeometry width="50" height="50" relative="1" as="geometry">
            <mxPoint x="395" y="354" as="sourcePoint" />
            <mxPoint x="605" y="334" as="targetPoint" />
          </mxGeometry>
        </mxCell>
        <mxCell id="kh0cykDb67qDTLCyd-Wk-7" style="edgeStyle=orthogonalEdgeStyle;rounded=0;orthogonalLoop=1;jettySize=auto;html=1;entryX=1;entryY=0.5;entryDx=0;entryDy=0;endArrow=none;startFill=0;exitX=0.5;exitY=1;exitDx=0;exitDy=0;" parent="1" source="kh0cykDb67qDTLCyd-Wk-6" target="kh0cykDb67qDTLCyd-Wk-3" edge="1">
          <mxGeometry relative="1" as="geometry">
            <Array as="points">
              <mxPoint x="695" y="419" />
            </Array>
          </mxGeometry>
        </mxCell>
        <mxCell id="kh0cykDb67qDTLCyd-Wk-6" value="&lt;p style=&quot;margin:0px;margin-top:4px;text-align:center;&quot;&gt;&lt;b&gt;ActividadTuristica&lt;/b&gt;&lt;/p&gt;&lt;hr size=&quot;1&quot; style=&quot;border-style:solid;&quot;&gt;&lt;p style=&quot;margin:0px;margin-left:4px;&quot;&gt;- nombreActividad: String&lt;/p&gt;&lt;p style=&quot;margin:0px;margin-left:4px;&quot;&gt;- descripcion: String&lt;/p&gt;&lt;p style=&quot;margin:0px;margin-left:4px;&quot;&gt;- duracion: DuracionAct&lt;/p&gt;&lt;p style=&quot;margin:0px;margin-left:4px;&quot;&gt;- costoTurista: float&lt;/p&gt;&lt;p style=&quot;margin:0px;margin-left:4px;&quot;&gt;- ciudad: String&lt;/p&gt;&lt;p style=&quot;margin:0px;margin-left:4px;&quot;&gt;- fechaAlta: Date&lt;/p&gt;" style="verticalAlign=top;align=left;overflow=fill;html=1;whiteSpace=wrap;" parent="1" vertex="1">
          <mxGeometry x="615" y="214" width="160" height="120" as="geometry" />
        </mxCell>
        <mxCell id="kh0cykDb67qDTLCyd-Wk-9" value="&lt;p style=&quot;margin:0px;margin-top:4px;text-align:center;&quot;&gt;&lt;b&gt;SalidaTuristica&lt;/b&gt;&lt;/p&gt;&lt;hr size=&quot;1&quot; style=&quot;border-style:solid;&quot;&gt;&lt;p style=&quot;margin:0px;margin-left:4px;&quot;&gt;- nombreSalida: String&lt;/p&gt;&lt;p style=&quot;margin:0px;margin-left:4px;&quot;&gt;- cantidadMaxTuristas: int&lt;/p&gt;&lt;p style=&quot;margin:0px;margin-left:4px;&quot;&gt;- lugarDeSalida: String&lt;/p&gt;&lt;p style=&quot;margin:0px;margin-left:4px;&quot;&gt;- fechaYHora: Date&lt;/p&gt;&lt;p style=&quot;margin:0px;margin-left:4px;&quot;&gt;- fechaAlta: Date&lt;/p&gt;" style="verticalAlign=top;align=left;overflow=fill;html=1;whiteSpace=wrap;" parent="1" vertex="1">
          <mxGeometry x="815" y="414" width="160" height="110" as="geometry" />
        </mxCell>
        <mxCell id="kh0cykDb67qDTLCyd-Wk-10" style="edgeStyle=orthogonalEdgeStyle;rounded=0;orthogonalLoop=1;jettySize=auto;html=1;entryX=1.007;entryY=0.457;entryDx=0;entryDy=0;entryPerimeter=0;exitX=0.5;exitY=0;exitDx=0;exitDy=0;" parent="1" source="kh0cykDb67qDTLCyd-Wk-9" target="kh0cykDb67qDTLCyd-Wk-6" edge="1">
          <mxGeometry relative="1" as="geometry">
            <Array as="points">
              <mxPoint x="895" y="269" />
            </Array>
          </mxGeometry>
        </mxCell>
        <mxCell id="kh0cykDb67qDTLCyd-Wk-11" value="1" style="text;html=1;align=center;verticalAlign=middle;resizable=0;points=[];autosize=1;strokeColor=none;fillColor=none;" parent="1" vertex="1">
          <mxGeometry x="785" y="234" width="30" height="30" as="geometry" />
        </mxCell>
        <mxCell id="kh0cykDb67qDTLCyd-Wk-12" value="*" style="text;html=1;align=center;verticalAlign=middle;resizable=0;points=[];autosize=1;strokeColor=none;fillColor=none;" parent="1" vertex="1">
          <mxGeometry x="905" y="374" width="30" height="30" as="geometry" />
        </mxCell>
        <mxCell id="kh0cykDb67qDTLCyd-Wk-14" style="edgeStyle=orthogonalEdgeStyle;rounded=0;orthogonalLoop=1;jettySize=auto;html=1;entryX=0.5;entryY=1;entryDx=0;entryDy=0;endArrow=none;startFill=0;" parent="1" source="kh0cykDb67qDTLCyd-Wk-13" target="kh0cykDb67qDTLCyd-Wk-9" edge="1">
          <mxGeometry relative="1" as="geometry" />
        </mxCell>
        <mxCell id="kh0cykDb67qDTLCyd-Wk-13" value="&lt;p style=&quot;margin:0px;margin-top:4px;text-align:center;&quot;&gt;&lt;b&gt;InscripcionSalidaTuristica&lt;/b&gt;&lt;/p&gt;&lt;hr size=&quot;1&quot; style=&quot;border-style:solid;&quot;&gt;&lt;p style=&quot;margin:0px;margin-left:4px;&quot;&gt;- cantidadTuristas: Int&lt;/p&gt;&lt;p style=&quot;margin:0px;margin-left:4px;&quot;&gt;- /costoTotal: float&lt;/p&gt;&lt;p style=&quot;margin:0px;margin-left:4px;&quot;&gt;- fechaInscripcion: Date&lt;/p&gt;" style="verticalAlign=top;align=left;overflow=fill;html=1;whiteSpace=wrap;" parent="1" vertex="1">
          <mxGeometry x="525" y="554" width="160" height="90" as="geometry" />
        </mxCell>
        <mxCell id="kh0cykDb67qDTLCyd-Wk-16" value="1" style="text;html=1;align=center;verticalAlign=middle;resizable=0;points=[];autosize=1;strokeColor=none;fillColor=none;" parent="1" vertex="1">
          <mxGeometry x="585" y="424" width="30" height="30" as="geometry" />
        </mxCell>
        <mxCell id="kh0cykDb67qDTLCyd-Wk-17" value="*" style="text;html=1;align=center;verticalAlign=middle;resizable=0;points=[];autosize=1;strokeColor=none;fillColor=none;" parent="1" vertex="1">
          <mxGeometry x="695" y="334" width="30" height="30" as="geometry" />
        </mxCell>
        <mxCell id="kh0cykDb67qDTLCyd-Wk-18" value="*" style="text;html=1;align=center;verticalAlign=middle;resizable=0;points=[];autosize=1;strokeColor=none;fillColor=none;" parent="1" vertex="1">
          <mxGeometry x="495" y="564" width="30" height="30" as="geometry" />
        </mxCell>
        <mxCell id="kh0cykDb67qDTLCyd-Wk-19" value="1" style="text;html=1;align=center;verticalAlign=middle;resizable=0;points=[];autosize=1;strokeColor=none;fillColor=none;" parent="1" vertex="1">
          <mxGeometry x="275" y="434" width="30" height="30" as="geometry" />
        </mxCell>
        <mxCell id="kh0cykDb67qDTLCyd-Wk-20" value="*" style="text;html=1;align=center;verticalAlign=middle;resizable=0;points=[];autosize=1;strokeColor=none;fillColor=none;" parent="1" vertex="1">
          <mxGeometry x="685" y="594" width="30" height="30" as="geometry" />
        </mxCell>
        <mxCell id="kh0cykDb67qDTLCyd-Wk-21" value="1" style="text;html=1;align=center;verticalAlign=middle;resizable=0;points=[];autosize=1;strokeColor=none;fillColor=none;" parent="1" vertex="1">
          <mxGeometry x="895" y="524" width="30" height="30" as="geometry" />
        </mxCell>
        <mxCell id="WfGEA9tW92-iIOMEY6XH-1" value="&lt;p style=&quot;margin:0px;margin-top:4px;text-align:center;&quot;&gt;&lt;b&gt;DuracionAct&lt;/b&gt;&lt;/p&gt;&lt;hr size=&quot;1&quot; style=&quot;border-style:solid;&quot;&gt;&lt;p style=&quot;margin:0px;margin-left:4px;&quot;&gt;- duracion: Duration&lt;/p&gt;" style="verticalAlign=top;align=left;overflow=fill;html=1;whiteSpace=wrap;" parent="1" vertex="1">
          <mxGeometry x="760" y="670" width="160" height="60" as="geometry" />
        </mxCell>
        <mxCell id="WfGEA9tW92-iIOMEY6XH-2" value="&lt;p style=&quot;margin:0px;margin-top:4px;text-align:center;&quot;&gt;&lt;b&gt;SitioWeb&lt;/b&gt;&lt;/p&gt;&lt;hr size=&quot;1&quot; style=&quot;border-style:solid;&quot;&gt;&lt;p style=&quot;margin:0px;margin-left:4px;&quot;&gt;- url: URI&lt;/p&gt;" style="verticalAlign=top;align=left;overflow=fill;html=1;whiteSpace=wrap;" parent="1" vertex="1">
          <mxGeometry x="935" y="670" width="160" height="60" as="geometry" />
        </mxCell>
      </root>
    </mxGraphModel>
  </diagram>
  <diagram id="KBmlHss2O4QAnYEtU9hW" name="CU1_AltaUsuario">
    <mxGraphModel dx="1028" dy="636" grid="1" gridSize="10" guides="1" tooltips="1" connect="1" arrows="1" fold="1" page="1" pageScale="1" pageWidth="1169" pageHeight="827" math="0" shadow="0">
      <root>
        <mxCell id="0" />
        <mxCell id="1" parent="0" />
        <mxCell id="uka3-XTswfbS_oYHTySo-1" value="" style="shape=umlLifeline;perimeter=lifelinePerimeter;whiteSpace=wrap;html=1;container=1;dropTarget=0;collapsible=0;recursiveResize=0;outlineConnect=0;portConstraint=eastwest;newEdgeStyle={&quot;curved&quot;:0,&quot;rounded&quot;:0};participant=umlActor;" parent="1" vertex="1">
          <mxGeometry x="118" y="130" width="20" height="570" as="geometry" />
        </mxCell>
        <mxCell id="uka3-XTswfbS_oYHTySo-2" value=":Sistema" style="shape=umlLifeline;perimeter=lifelinePerimeter;whiteSpace=wrap;html=1;container=1;dropTarget=0;collapsible=0;recursiveResize=0;outlineConnect=0;portConstraint=eastwest;newEdgeStyle={&quot;curved&quot;:0,&quot;rounded&quot;:0};" parent="1" vertex="1">
          <mxGeometry x="548" y="130" width="100" height="570" as="geometry" />
        </mxCell>
        <mxCell id="uka3-XTswfbS_oYHTySo-3" value="Administrador del sistema" style="text;html=1;align=center;verticalAlign=middle;resizable=0;points=[];autosize=1;strokeColor=none;fillColor=none;" parent="1" vertex="1">
          <mxGeometry x="48" y="90" width="160" height="30" as="geometry" />
        </mxCell>
        <mxCell id="uka3-XTswfbS_oYHTySo-5" value="Alta de Usuario" style="text;html=1;align=center;verticalAlign=middle;whiteSpace=wrap;rounded=0;fontStyle=1;fontSize=14;" parent="1" vertex="1">
          <mxGeometry x="500" y="30" width="170" height="30" as="geometry" />
        </mxCell>
        <mxCell id="M74jOJpCTKYStAN9ye7n-1" value="&lt;p style=&quot;margin:0px;margin-top:4px;text-align:center;&quot;&gt;&lt;b&gt;DtUsuario&lt;/b&gt;&lt;/p&gt;&lt;hr size=&quot;1&quot; style=&quot;border-style:solid;&quot;&gt;&lt;p style=&quot;margin:0px;margin-left:4px;&quot;&gt;- nickname: String&lt;/p&gt;&lt;p style=&quot;margin:0px;margin-left:4px;&quot;&gt;- nombre: String&lt;/p&gt;&lt;p style=&quot;margin:0px;margin-left:4px;&quot;&gt;- apellido: String&lt;/p&gt;&lt;p style=&quot;margin:0px;margin-left:4px;&quot;&gt;- email: String&lt;/p&gt;&lt;p style=&quot;margin:0px;margin-left:4px;&quot;&gt;- fechaNacimiento: Date&lt;/p&gt;&lt;p style=&quot;margin:0px;margin-left:4px;&quot;&gt;- tipoUsuario: TipoUsuario&lt;/p&gt;" style="verticalAlign=top;align=left;overflow=fill;html=1;whiteSpace=wrap;" parent="1" vertex="1">
          <mxGeometry x="880" y="530" width="160" height="120" as="geometry" />
        </mxCell>
        <mxCell id="M74jOJpCTKYStAN9ye7n-2" value="&lt;p style=&quot;margin:0px;margin-top:4px;text-align:center;&quot;&gt;&lt;b&gt;DtTurista&lt;/b&gt;&lt;/p&gt;&lt;hr size=&quot;1&quot; style=&quot;border-style:solid;&quot;&gt;&lt;p style=&quot;margin:0px;margin-left:4px;&quot;&gt;- nacionalidad: String&lt;/p&gt;" style="verticalAlign=top;align=left;overflow=fill;html=1;whiteSpace=wrap;" parent="1" vertex="1">
          <mxGeometry x="760" y="730" width="160" height="50" as="geometry" />
        </mxCell>
        <mxCell id="M74jOJpCTKYStAN9ye7n-3" value="&lt;p style=&quot;margin:0px;margin-top:4px;text-align:center;&quot;&gt;&lt;b&gt;DtProveedor&lt;/b&gt;&lt;/p&gt;&lt;hr size=&quot;1&quot; style=&quot;border-style:solid;&quot;&gt;&lt;p style=&quot;margin:0px;margin-left:4px;&quot;&gt;- descripcion: String&lt;/p&gt;&lt;p style=&quot;margin:0px;margin-left:4px;&quot;&gt;- sitioWeb: SitioWeb&lt;/p&gt;" style="verticalAlign=top;align=left;overflow=fill;html=1;whiteSpace=wrap;" parent="1" vertex="1">
          <mxGeometry x="980" y="730" width="160" height="70" as="geometry" />
        </mxCell>
        <mxCell id="M74jOJpCTKYStAN9ye7n-4" value="" style="endArrow=none;html=1;rounded=0;entryX=0.5;entryY=0;entryDx=0;entryDy=0;" parent="1" target="M74jOJpCTKYStAN9ye7n-3" edge="1">
          <mxGeometry width="50" height="50" relative="1" as="geometry">
            <mxPoint x="840" y="731" as="sourcePoint" />
            <mxPoint x="1070" y="700" as="targetPoint" />
            <Array as="points">
              <mxPoint x="840" y="700" />
              <mxPoint x="1060" y="700" />
            </Array>
          </mxGeometry>
        </mxCell>
        <mxCell id="M74jOJpCTKYStAN9ye7n-5" value="" style="endArrow=block;html=1;rounded=0;entryX=0.5;entryY=1;entryDx=0;entryDy=0;endFill=0;" parent="1" target="M74jOJpCTKYStAN9ye7n-1" edge="1">
          <mxGeometry width="50" height="50" relative="1" as="geometry">
            <mxPoint x="960" y="700" as="sourcePoint" />
            <mxPoint x="1170" y="680" as="targetPoint" />
          </mxGeometry>
        </mxCell>
        <mxCell id="jjeJGJw5jNAxcA_RsSxx-1" value="" style="endArrow=classic;html=1;rounded=0;" parent="1" edge="1">
          <mxGeometry width="50" height="50" relative="1" as="geometry">
            <mxPoint x="127.59090909090901" y="221" as="sourcePoint" />
            <mxPoint x="597.5" y="221" as="targetPoint" />
          </mxGeometry>
        </mxCell>
        <mxCell id="jjeJGJw5jNAxcA_RsSxx-2" value="usuarioExistente = ingresoDatos(usuario:DtUsuario) : boolean" style="text;html=1;align=center;verticalAlign=middle;resizable=0;points=[];autosize=1;strokeColor=none;fillColor=none;" parent="1" vertex="1">
          <mxGeometry x="188" y="191" width="350" height="30" as="geometry" />
        </mxCell>
        <mxCell id="jjeJGJw5jNAxcA_RsSxx-3" value="loop" style="shape=umlFrame;whiteSpace=wrap;html=1;pointerEvents=0;" parent="1" vertex="1">
          <mxGeometry x="58" y="242" width="590" height="250" as="geometry" />
        </mxCell>
        <mxCell id="jjeJGJw5jNAxcA_RsSxx-4" value="[usuarioExistente == true || no cancela]" style="text;html=1;align=center;verticalAlign=middle;resizable=0;points=[];autosize=1;strokeColor=none;fillColor=none;" parent="1" vertex="1">
          <mxGeometry x="153" y="242" width="230" height="30" as="geometry" />
        </mxCell>
        <mxCell id="jjeJGJw5jNAxcA_RsSxx-5" value="alt" style="shape=umlFrame;whiteSpace=wrap;html=1;pointerEvents=0;" parent="1" vertex="1">
          <mxGeometry x="88" y="292" width="530" height="170" as="geometry" />
        </mxCell>
        <mxCell id="jjeJGJw5jNAxcA_RsSxx-7" value="" style="endArrow=classic;html=1;rounded=0;" parent="1" edge="1">
          <mxGeometry width="50" height="50" relative="1" as="geometry">
            <mxPoint x="128" y="359" as="sourcePoint" />
            <mxPoint x="597.909090909091" y="359" as="targetPoint" />
          </mxGeometry>
        </mxCell>
        <mxCell id="jjeJGJw5jNAxcA_RsSxx-8" value="usuarioExistente = ingresoDatosUsuario(usuario:DtUsuario) : boolean" style="text;html=1;align=center;verticalAlign=middle;resizable=0;points=[];autosize=1;strokeColor=none;fillColor=none;" parent="1" vertex="1">
          <mxGeometry x="168.409090909091" y="329" width="390" height="30" as="geometry" />
        </mxCell>
        <mxCell id="jjeJGJw5jNAxcA_RsSxx-9" value="" style="endArrow=none;html=1;rounded=0;exitX=0.001;exitY=0.53;exitDx=0;exitDy=0;exitPerimeter=0;entryX=0.997;entryY=0.521;entryDx=0;entryDy=0;entryPerimeter=0;" parent="1" source="jjeJGJw5jNAxcA_RsSxx-5" target="jjeJGJw5jNAxcA_RsSxx-5" edge="1">
          <mxGeometry width="50" height="50" relative="1" as="geometry">
            <mxPoint x="518" y="362" as="sourcePoint" />
            <mxPoint x="568" y="312" as="targetPoint" />
          </mxGeometry>
        </mxCell>
        <mxCell id="jjeJGJw5jNAxcA_RsSxx-10" value="" style="endArrow=classic;html=1;rounded=0;" parent="1" edge="1">
          <mxGeometry width="50" height="50" relative="1" as="geometry">
            <mxPoint x="128" y="432" as="sourcePoint" />
            <mxPoint x="597.909090909091" y="432" as="targetPoint" />
          </mxGeometry>
        </mxCell>
        <mxCell id="jjeJGJw5jNAxcA_RsSxx-11" value="cancelarAlta()" style="text;html=1;align=center;verticalAlign=middle;resizable=0;points=[];autosize=1;strokeColor=none;fillColor=none;" parent="1" vertex="1">
          <mxGeometry x="302.99909090909097" y="402" width="100" height="30" as="geometry" />
        </mxCell>
        <mxCell id="jjeJGJw5jNAxcA_RsSxx-12" value="opt" style="shape=umlFrame;whiteSpace=wrap;html=1;pointerEvents=0;" parent="1" vertex="1">
          <mxGeometry x="58" y="522" width="590" height="100" as="geometry" />
        </mxCell>
        <mxCell id="jjeJGJw5jNAxcA_RsSxx-13" value="" style="endArrow=classic;html=1;rounded=0;" parent="1" edge="1">
          <mxGeometry width="50" height="50" relative="1" as="geometry">
            <mxPoint x="128.45000000000002" y="592" as="sourcePoint" />
            <mxPoint x="598.3590909090912" y="592" as="targetPoint" />
          </mxGeometry>
        </mxCell>
        <mxCell id="jjeJGJw5jNAxcA_RsSxx-14" value="confirmaAltaUsuario()" style="text;html=1;align=center;verticalAlign=middle;resizable=0;points=[];autosize=1;strokeColor=none;fillColor=none;" parent="1" vertex="1">
          <mxGeometry x="282.99909090909097" y="562" width="140" height="30" as="geometry" />
        </mxCell>
        <mxCell id="jjeJGJw5jNAxcA_RsSxx-15" value="[usuarioExistente == false]" style="text;html=1;align=center;verticalAlign=middle;resizable=0;points=[];autosize=1;strokeColor=none;fillColor=none;" parent="1" vertex="1">
          <mxGeometry x="128" y="522" width="160" height="30" as="geometry" />
        </mxCell>
        <mxCell id="GfjQnZ38pagIXZtc1Bk2-1" value="[Reingresa los datos del usuario]" style="text;html=1;align=center;verticalAlign=middle;resizable=0;points=[];autosize=1;strokeColor=none;fillColor=none;" parent="1" vertex="1">
          <mxGeometry x="150" y="292" width="200" height="30" as="geometry" />
        </mxCell>
        <mxCell id="GfjQnZ38pagIXZtc1Bk2-2" value="[else]" style="text;html=1;align=center;verticalAlign=middle;resizable=0;points=[];autosize=1;strokeColor=none;fillColor=none;" parent="1" vertex="1">
          <mxGeometry x="128" y="384" width="50" height="30" as="geometry" />
        </mxCell>
      </root>
    </mxGraphModel>
  </diagram>
  <diagram id="Tysvvw1a4r16jUoEJycR" name="CU2_ConsultaUsuario">
    <mxGraphModel dx="791" dy="489" grid="1" gridSize="10" guides="1" tooltips="1" connect="1" arrows="1" fold="1" page="1" pageScale="1" pageWidth="1169" pageHeight="827" math="0" shadow="0">
      <root>
        <mxCell id="0" />
        <mxCell id="1" parent="0" />
        <mxCell id="-Uc_SmkXlzofR8a1a5cJ-1" value="" style="shape=umlLifeline;perimeter=lifelinePerimeter;whiteSpace=wrap;html=1;container=1;dropTarget=0;collapsible=0;recursiveResize=0;outlineConnect=0;portConstraint=eastwest;newEdgeStyle={&quot;curved&quot;:0,&quot;rounded&quot;:0};participant=umlActor;" parent="1" vertex="1">
          <mxGeometry x="109" y="129" width="20" height="570" as="geometry" />
        </mxCell>
        <mxCell id="-Uc_SmkXlzofR8a1a5cJ-2" value=":Sistema" style="shape=umlLifeline;perimeter=lifelinePerimeter;whiteSpace=wrap;html=1;container=1;dropTarget=0;collapsible=0;recursiveResize=0;outlineConnect=0;portConstraint=eastwest;newEdgeStyle={&quot;curved&quot;:0,&quot;rounded&quot;:0};" parent="1" vertex="1">
          <mxGeometry x="539" y="129" width="100" height="570" as="geometry" />
        </mxCell>
        <mxCell id="-Uc_SmkXlzofR8a1a5cJ-3" value="Administrador del sistema" style="text;html=1;align=center;verticalAlign=middle;resizable=0;points=[];autosize=1;strokeColor=none;fillColor=none;" parent="1" vertex="1">
          <mxGeometry x="39" y="89" width="160" height="30" as="geometry" />
        </mxCell>
        <mxCell id="-Uc_SmkXlzofR8a1a5cJ-4" value="Consulta de Usuario" style="text;html=1;align=center;verticalAlign=middle;whiteSpace=wrap;rounded=0;fontStyle=1;fontSize=14;" parent="1" vertex="1">
          <mxGeometry x="491" y="29" width="170" height="30" as="geometry" />
        </mxCell>
        <mxCell id="-Uc_SmkXlzofR8a1a5cJ-5" value="&lt;p style=&quot;margin:0px;margin-top:4px;text-align:center;&quot;&gt;&lt;b&gt;DtPerfilUsuario&lt;/b&gt;&lt;/p&gt;&lt;hr size=&quot;1&quot; style=&quot;border-style:solid;&quot;&gt;&lt;p style=&quot;margin:0px;margin-left:4px;&quot;&gt;- usuario: DtUsuario&lt;/p&gt;" style="verticalAlign=top;align=left;overflow=fill;html=1;whiteSpace=wrap;" parent="1" vertex="1">
          <mxGeometry x="1020" y="49" width="160" height="51" as="geometry" />
        </mxCell>
        <mxCell id="-Uc_SmkXlzofR8a1a5cJ-6" value="&lt;p style=&quot;margin:0px;margin-top:4px;text-align:center;&quot;&gt;&lt;b&gt;DtPerfilTurista&lt;/b&gt;&lt;/p&gt;&lt;hr size=&quot;1&quot; style=&quot;border-style:solid;&quot;&gt;&lt;p style=&quot;margin:0px;margin-left:4px;&quot;&gt;- salidas: Set(DtInscripcionSalidaTuristica)&lt;/p&gt;" style="verticalAlign=top;align=left;overflow=fill;html=1;whiteSpace=wrap;" parent="1" vertex="1">
          <mxGeometry x="810" y="168" width="230" height="50" as="geometry" />
        </mxCell>
        <mxCell id="-Uc_SmkXlzofR8a1a5cJ-7" value="&lt;p style=&quot;margin:0px;margin-top:4px;text-align:center;&quot;&gt;&lt;b&gt;DtPerfilProveedor&lt;/b&gt;&lt;/p&gt;&lt;hr size=&quot;1&quot; style=&quot;border-style:solid;&quot;&gt;&lt;p style=&quot;margin:0px;margin-left:4px;&quot;&gt;- actividades: Set(DtActividadConSalida)&lt;/p&gt;" style="verticalAlign=top;align=left;overflow=fill;html=1;whiteSpace=wrap;" parent="1" vertex="1">
          <mxGeometry x="1080" y="168" width="225" height="50" as="geometry" />
        </mxCell>
        <mxCell id="-Uc_SmkXlzofR8a1a5cJ-8" value="" style="endArrow=none;html=1;rounded=0;entryX=0.534;entryY=0.024;entryDx=0;entryDy=0;entryPerimeter=0;" parent="1" target="-Uc_SmkXlzofR8a1a5cJ-7" edge="1">
          <mxGeometry width="50" height="50" relative="1" as="geometry">
            <mxPoint x="980" y="169" as="sourcePoint" />
            <mxPoint x="1210" y="138" as="targetPoint" />
            <Array as="points">
              <mxPoint x="980" y="138" />
              <mxPoint x="1200" y="138" />
            </Array>
          </mxGeometry>
        </mxCell>
        <mxCell id="-Uc_SmkXlzofR8a1a5cJ-9" value="" style="endArrow=block;html=1;rounded=0;entryX=0.5;entryY=1;entryDx=0;entryDy=0;endFill=0;" parent="1" target="-Uc_SmkXlzofR8a1a5cJ-5" edge="1">
          <mxGeometry width="50" height="50" relative="1" as="geometry">
            <mxPoint x="1100" y="138" as="sourcePoint" />
            <mxPoint x="1310" y="118" as="targetPoint" />
          </mxGeometry>
        </mxCell>
        <mxCell id="-Uc_SmkXlzofR8a1a5cJ-10" value="" style="endArrow=classic;html=1;rounded=0;" parent="1" edge="1">
          <mxGeometry width="50" height="50" relative="1" as="geometry">
            <mxPoint x="118.59090909090901" y="220" as="sourcePoint" />
            <mxPoint x="588.5" y="220" as="targetPoint" />
          </mxGeometry>
        </mxCell>
        <mxCell id="-Uc_SmkXlzofR8a1a5cJ-11" value="listarUsuarios() : Set(String)" style="text;html=1;align=center;verticalAlign=middle;resizable=0;points=[];autosize=1;strokeColor=none;fillColor=none;" parent="1" vertex="1">
          <mxGeometry x="269.41" y="190" width="170" height="30" as="geometry" />
        </mxCell>
        <mxCell id="-Uc_SmkXlzofR8a1a5cJ-15" value="" style="endArrow=classic;html=1;rounded=0;" parent="1" edge="1">
          <mxGeometry width="50" height="50" relative="1" as="geometry">
            <mxPoint x="119" y="270" as="sourcePoint" />
            <mxPoint x="588.909090909091" y="270" as="targetPoint" />
          </mxGeometry>
        </mxCell>
        <mxCell id="-Uc_SmkXlzofR8a1a5cJ-16" value="seleccionarUsuario(usuario:String) : DtPerfilUsuario" style="text;html=1;align=center;verticalAlign=middle;resizable=0;points=[];autosize=1;strokeColor=none;fillColor=none;" parent="1" vertex="1">
          <mxGeometry x="204.409090909091" y="240" width="300" height="30" as="geometry" />
        </mxCell>
        <mxCell id="0kEUNI5AAPaFcyRT1xMH-1" value="&lt;p style=&quot;margin:0px;margin-top:4px;text-align:center;&quot;&gt;&lt;b&gt;DtInscripcionSalidaTuristica&lt;/b&gt;&lt;/p&gt;&lt;hr size=&quot;1&quot; style=&quot;border-style:solid;&quot;&gt;&lt;p style=&quot;margin: 0px 0px 0px 4px;&quot;&gt;- cantidadTuristas: Int&lt;/p&gt;&lt;p style=&quot;margin: 0px 0px 0px 4px;&quot;&gt;- costoTotal: float&lt;/p&gt;&lt;p style=&quot;margin: 0px 0px 0px 4px;&quot;&gt;- fechaInscripcion: Date&lt;/p&gt;&lt;p style=&quot;margin: 0px 0px 0px 4px;&quot;&gt;- salida : DtSalidaTuristica&lt;/p&gt;" style="verticalAlign=top;align=left;overflow=fill;html=1;whiteSpace=wrap;" parent="1" vertex="1">
          <mxGeometry x="830" y="248" width="180" height="100" as="geometry" />
        </mxCell>
        <mxCell id="8aajlEuJ1WLUbk8BjAIU-1" value="&lt;p style=&quot;margin:0px;margin-top:4px;text-align:center;&quot;&gt;&lt;b&gt;DtActividadConSalida&lt;/b&gt;&lt;/p&gt;&lt;hr size=&quot;1&quot; style=&quot;border-style:solid;&quot;&gt;&lt;p style=&quot;margin:0px;margin-left:4px;&quot;&gt;- nombreActividad: String&lt;/p&gt;&lt;p style=&quot;margin:0px;margin-left:4px;&quot;&gt;- descripcion: String&lt;/p&gt;&lt;p style=&quot;margin:0px;margin-left:4px;&quot;&gt;- duracion: DuracionAct&lt;/p&gt;&lt;p style=&quot;margin:0px;margin-left:4px;&quot;&gt;- costoTurista: float&lt;/p&gt;&lt;p style=&quot;margin:0px;margin-left:4px;&quot;&gt;- ciudad: String&lt;/p&gt;&lt;p style=&quot;margin:0px;margin-left:4px;&quot;&gt;- fechaAlta: Date&lt;/p&gt;&lt;p style=&quot;margin:0px;margin-left:4px;&quot;&gt;- salidas: Set(DtSalidaTuristica)&lt;/p&gt;" style="verticalAlign=top;align=left;overflow=fill;html=1;whiteSpace=wrap;" parent="1" vertex="1">
          <mxGeometry x="1040" y="248" width="180" height="140" as="geometry" />
        </mxCell>
        <mxCell id="8aajlEuJ1WLUbk8BjAIU-4" value="- El caso de uso comienza cuando el administrador desea consultar el perfil de un usuario. Para ello el sistema muestra la lista de todos los usuarios y el administrador elige uno. &#xa;&#xa;- Luego, el sistema muestra todos los datos básicos del usuario. &#xa;&#xa;a. Si es proveedor/a se muestra también la información básica de las actividades turísticas que ofrece y salidas asociadas. &#xa;&#xa;b. Si es turista se muestra también la información de las salidas a las que se inscribió. &#xa;&#xa;- Si el administrador selecciona una actividad turística o una salida, se muestra la información detallada, tal como se indica en los casos de uso Consulta de Actividad Turística y Consulta  de Salida Turística, respectivamente" style="text;whiteSpace=wrap;" parent="1" vertex="1">
          <mxGeometry x="1305" y="280" width="500" height="210" as="geometry" />
        </mxCell>
        <mxCell id="UokzrB0ocyzsCOJhEDcM-1" value="opt" style="shape=umlFrame;whiteSpace=wrap;html=1;pointerEvents=0;" parent="1" vertex="1">
          <mxGeometry x="59" y="307" width="590" height="250" as="geometry" />
        </mxCell>
        <mxCell id="UokzrB0ocyzsCOJhEDcM-2" value="[Si selecciona una actividad o salida turistica]" style="text;html=1;align=center;verticalAlign=middle;resizable=0;points=[];autosize=1;strokeColor=none;fillColor=none;" parent="1" vertex="1">
          <mxGeometry x="130" y="307" width="260" height="30" as="geometry" />
        </mxCell>
        <mxCell id="UokzrB0ocyzsCOJhEDcM-3" value="alt" style="shape=umlFrame;whiteSpace=wrap;html=1;pointerEvents=0;" parent="1" vertex="1">
          <mxGeometry x="90" y="350" width="530" height="170" as="geometry" />
        </mxCell>
        <mxCell id="UokzrB0ocyzsCOJhEDcM-4" value="" style="endArrow=classic;html=1;rounded=0;" parent="1" edge="1">
          <mxGeometry width="50" height="50" relative="1" as="geometry">
            <mxPoint x="119" y="422" as="sourcePoint" />
            <mxPoint x="588.909090909091" y="422" as="targetPoint" />
          </mxGeometry>
        </mxCell>
        <mxCell id="UokzrB0ocyzsCOJhEDcM-5" value="consultarActividadTuristica(nombreActividad: String) : DtActividadTuristica" style="text;html=1;align=center;verticalAlign=middle;resizable=0;points=[];autosize=1;strokeColor=none;fillColor=none;" parent="1" vertex="1">
          <mxGeometry x="143.999090909091" y="392" width="420" height="30" as="geometry" />
        </mxCell>
        <mxCell id="UokzrB0ocyzsCOJhEDcM-6" value="" style="endArrow=none;html=1;rounded=0;exitX=0.001;exitY=0.53;exitDx=0;exitDy=0;exitPerimeter=0;entryX=0.997;entryY=0.521;entryDx=0;entryDy=0;entryPerimeter=0;" parent="1" source="UokzrB0ocyzsCOJhEDcM-3" target="UokzrB0ocyzsCOJhEDcM-3" edge="1">
          <mxGeometry width="50" height="50" relative="1" as="geometry">
            <mxPoint x="509" y="420" as="sourcePoint" />
            <mxPoint x="559" y="370" as="targetPoint" />
          </mxGeometry>
        </mxCell>
        <mxCell id="UokzrB0ocyzsCOJhEDcM-7" value="" style="endArrow=classic;html=1;rounded=0;" parent="1" edge="1">
          <mxGeometry width="50" height="50" relative="1" as="geometry">
            <mxPoint x="119" y="490" as="sourcePoint" />
            <mxPoint x="588.909090909091" y="490" as="targetPoint" />
          </mxGeometry>
        </mxCell>
        <mxCell id="UokzrB0ocyzsCOJhEDcM-8" value="consultarSalidaTuristica(nombreSalida: String) :&amp;nbsp;DtSalidaTuristica" style="text;html=1;align=center;verticalAlign=middle;resizable=0;points=[];autosize=1;strokeColor=none;fillColor=none;" parent="1" vertex="1">
          <mxGeometry x="169.4090909090909" y="460" width="370" height="30" as="geometry" />
        </mxCell>
        <mxCell id="T4FLjLu4iD3kaVJZodxV-1" value="[Selecciona actividad]" style="text;html=1;align=center;verticalAlign=middle;resizable=0;points=[];autosize=1;strokeColor=none;fillColor=none;" parent="1" vertex="1">
          <mxGeometry x="151" y="350" width="140" height="30" as="geometry" />
        </mxCell>
        <mxCell id="T4FLjLu4iD3kaVJZodxV-2" value="[else]" style="text;html=1;align=center;verticalAlign=middle;resizable=0;points=[];autosize=1;strokeColor=none;fillColor=none;" parent="1" vertex="1">
          <mxGeometry x="120" y="440" width="50" height="30" as="geometry" />
        </mxCell>
        <mxCell id="JbRooont3cJ5fHFIvOsT-1" value="&lt;p style=&quot;margin:0px;margin-top:4px;text-align:center;&quot;&gt;&lt;b&gt;DtSalidaTuristica&lt;/b&gt;&lt;/p&gt;&lt;hr size=&quot;1&quot; style=&quot;border-style:solid;&quot;&gt;&lt;p style=&quot;margin:0px;margin-left:4px;&quot;&gt;- nombreSalida: String&lt;/p&gt;&lt;p style=&quot;margin:0px;margin-left:4px;&quot;&gt;- cantidadMaxTuristas: int&lt;/p&gt;&lt;p style=&quot;margin:0px;margin-left:4px;&quot;&gt;- lugarDeSalida: String&lt;/p&gt;&lt;p style=&quot;margin:0px;margin-left:4px;&quot;&gt;- fechaYHora: Date&lt;/p&gt;&lt;p style=&quot;margin:0px;margin-left:4px;&quot;&gt;- fechaAlta: Date&lt;/p&gt;" style="verticalAlign=top;align=left;overflow=fill;html=1;whiteSpace=wrap;" parent="1" vertex="1">
          <mxGeometry x="790" y="462" width="160" height="110" as="geometry" />
        </mxCell>
        <mxCell id="Wi9dna-AEgH24v-YSQMl-1" value="&lt;p style=&quot;margin:0px;margin-top:4px;text-align:center;&quot;&gt;&lt;b&gt;DtActividadTuristica&lt;/b&gt;&lt;/p&gt;&lt;hr size=&quot;1&quot; style=&quot;border-style:solid;&quot;&gt;&lt;p style=&quot;margin:0px;margin-left:4px;&quot;&gt;- nombreActividad: String&lt;/p&gt;&lt;p style=&quot;margin:0px;margin-left:4px;&quot;&gt;- descripcion: String&lt;/p&gt;&lt;p style=&quot;margin:0px;margin-left:4px;&quot;&gt;- duracion: DuracionAct&lt;/p&gt;&lt;p style=&quot;margin:0px;margin-left:4px;&quot;&gt;- costoTurista: float&lt;/p&gt;&lt;p style=&quot;margin:0px;margin-left:4px;&quot;&gt;- ciudad: String&lt;/p&gt;&lt;p style=&quot;margin:0px;margin-left:4px;&quot;&gt;- fechaAlta: Date&lt;/p&gt;" style="verticalAlign=top;align=left;overflow=fill;html=1;whiteSpace=wrap;" vertex="1" parent="1">
          <mxGeometry x="970" y="460" width="180" height="125" as="geometry" />
        </mxCell>
      </root>
    </mxGraphModel>
  </diagram>
  <diagram id="forGHcRgsenPEUHn8clc" name="CU4_AltaDeActividadTuristica">
    <mxGraphModel dx="1281" dy="574" grid="1" gridSize="10" guides="1" tooltips="1" connect="1" arrows="1" fold="1" page="1" pageScale="1" pageWidth="827" pageHeight="1169" math="0" shadow="0">
      <root>
        <mxCell id="0" />
        <mxCell id="1" parent="0" />
        <mxCell id="qqtoGIaQXKvuEJhqQhXc-1" value="" style="shape=umlLifeline;perimeter=lifelinePerimeter;whiteSpace=wrap;html=1;container=1;dropTarget=0;collapsible=0;recursiveResize=0;outlineConnect=0;portConstraint=eastwest;newEdgeStyle={&quot;curved&quot;:0,&quot;rounded&quot;:0};participant=umlActor;" vertex="1" parent="1">
          <mxGeometry x="150" y="135" width="20" height="580" as="geometry" />
        </mxCell>
        <mxCell id="qqtoGIaQXKvuEJhqQhXc-2" value="Administrador del sistema" style="text;html=1;align=center;verticalAlign=middle;resizable=0;points=[];autosize=1;strokeColor=none;fillColor=none;" vertex="1" parent="1">
          <mxGeometry x="90" y="95" width="160" height="30" as="geometry" />
        </mxCell>
        <mxCell id="qqtoGIaQXKvuEJhqQhXc-3" value="" style="endArrow=classic;html=1;rounded=0;" edge="1" parent="1" source="qqtoGIaQXKvuEJhqQhXc-1" target="qqtoGIaQXKvuEJhqQhXc-4">
          <mxGeometry width="50" height="50" relative="1" as="geometry">
            <mxPoint x="190.000909090909" y="265" as="sourcePoint" />
            <mxPoint x="650" y="265" as="targetPoint" />
            <Array as="points">
              <mxPoint x="480" y="265" />
              <mxPoint x="620" y="265" />
            </Array>
          </mxGeometry>
        </mxCell>
        <mxCell id="qqtoGIaQXKvuEJhqQhXc-4" value=":Sistema" style="shape=umlLifeline;perimeter=lifelinePerimeter;whiteSpace=wrap;html=1;container=1;dropTarget=0;collapsible=0;recursiveResize=0;outlineConnect=0;portConstraint=eastwest;newEdgeStyle={&quot;curved&quot;:0,&quot;rounded&quot;:0};" vertex="1" parent="1">
          <mxGeometry x="670" y="134" width="100" height="570" as="geometry" />
        </mxCell>
        <mxCell id="qqtoGIaQXKvuEJhqQhXc-5" value="listarProveedores(): set(DtProveedor)" style="text;html=1;align=center;verticalAlign=middle;resizable=0;points=[];autosize=1;strokeColor=none;fillColor=none;" vertex="1" parent="1">
          <mxGeometry x="305" y="185" width="220" height="30" as="geometry" />
        </mxCell>
        <mxCell id="qqtoGIaQXKvuEJhqQhXc-6" value="" style="endArrow=classic;html=1;rounded=0;" edge="1" parent="1" source="qqtoGIaQXKvuEJhqQhXc-1" target="qqtoGIaQXKvuEJhqQhXc-4">
          <mxGeometry width="50" height="50" relative="1" as="geometry">
            <mxPoint x="187.590909090909" y="225" as="sourcePoint" />
            <mxPoint x="660" y="225" as="targetPoint" />
            <Array as="points">
              <mxPoint x="460" y="215" />
            </Array>
          </mxGeometry>
        </mxCell>
        <mxCell id="qqtoGIaQXKvuEJhqQhXc-7" value="loop" style="shape=umlFrame;whiteSpace=wrap;html=1;pointerEvents=0;" vertex="1" parent="1">
          <mxGeometry x="100" y="295" width="690" height="250" as="geometry" />
        </mxCell>
        <mxCell id="qqtoGIaQXKvuEJhqQhXc-8" value="alt" style="shape=umlFrame;whiteSpace=wrap;html=1;pointerEvents=0;" vertex="1" parent="1">
          <mxGeometry x="130" y="335" width="620" height="180" as="geometry" />
        </mxCell>
        <mxCell id="qqtoGIaQXKvuEJhqQhXc-9" value="" style="endArrow=none;html=1;rounded=0;exitX=0.001;exitY=0.53;exitDx=0;exitDy=0;exitPerimeter=0;entryX=0.997;entryY=0.521;entryDx=0;entryDy=0;entryPerimeter=0;" edge="1" parent="1" source="qqtoGIaQXKvuEJhqQhXc-8" target="qqtoGIaQXKvuEJhqQhXc-8">
          <mxGeometry width="50" height="50" relative="1" as="geometry">
            <mxPoint x="580" y="415" as="sourcePoint" />
            <mxPoint x="630" y="365" as="targetPoint" />
          </mxGeometry>
        </mxCell>
        <mxCell id="qqtoGIaQXKvuEJhqQhXc-10" value="opt" style="shape=umlFrame;whiteSpace=wrap;html=1;pointerEvents=0;" vertex="1" parent="1">
          <mxGeometry x="100" y="575" width="690" height="100" as="geometry" />
        </mxCell>
        <mxCell id="qqtoGIaQXKvuEJhqQhXc-11" value="confirmaAltaActividad()" style="text;html=1;align=center;verticalAlign=middle;resizable=0;points=[];autosize=1;strokeColor=none;fillColor=none;" vertex="1" parent="1">
          <mxGeometry x="364.99909090909097" y="615" width="150" height="30" as="geometry" />
        </mxCell>
        <mxCell id="qqtoGIaQXKvuEJhqQhXc-12" value="actividadExtistente= ingresoDatosActividad(actividad:DtActividad, proveedor:DtProveedor) : boolean" style="text;html=1;align=center;verticalAlign=middle;resizable=0;points=[];autosize=1;strokeColor=none;fillColor=none;" vertex="1" parent="1">
          <mxGeometry x="160" y="225" width="560" height="30" as="geometry" />
        </mxCell>
        <mxCell id="qqtoGIaQXKvuEJhqQhXc-13" value="[actividadExistente == true &amp;amp;&amp;amp; cancelaCU == false]" style="text;html=1;align=center;verticalAlign=middle;resizable=0;points=[];autosize=1;strokeColor=none;fillColor=none;" vertex="1" parent="1">
          <mxGeometry x="188" y="295" width="300" height="30" as="geometry" />
        </mxCell>
        <mxCell id="qqtoGIaQXKvuEJhqQhXc-14" value="cancelaCU&amp;nbsp;&amp;nbsp;= cancelarAltaActividad() : boolean" style="text;html=1;align=center;verticalAlign=middle;resizable=0;points=[];autosize=1;strokeColor=none;fillColor=none;" vertex="1" parent="1">
          <mxGeometry x="280.99909090909097" y="455" width="270" height="30" as="geometry" />
        </mxCell>
        <mxCell id="qqtoGIaQXKvuEJhqQhXc-15" value="actividadExistente = ingresoDatosActivdad(actividad:DtActividad, proveedor:DtProveedor) : boolean" style="text;html=1;align=center;verticalAlign=middle;resizable=0;points=[];autosize=1;strokeColor=none;fillColor=none;" vertex="1" parent="1">
          <mxGeometry x="169.999090909091" y="365" width="550" height="30" as="geometry" />
        </mxCell>
        <mxCell id="qqtoGIaQXKvuEJhqQhXc-16" value="[actividadExistente == false]" style="text;html=1;align=center;verticalAlign=middle;resizable=0;points=[];autosize=1;strokeColor=none;fillColor=none;" vertex="1" parent="1">
          <mxGeometry x="183" y="575" width="170" height="30" as="geometry" />
        </mxCell>
        <mxCell id="qqtoGIaQXKvuEJhqQhXc-17" value="" style="endArrow=classic;html=1;rounded=0;" edge="1" parent="1">
          <mxGeometry width="50" height="50" relative="1" as="geometry">
            <mxPoint x="160" y="395" as="sourcePoint" />
            <mxPoint x="720" y="395" as="targetPoint" />
            <Array as="points">
              <mxPoint x="480" y="395" />
              <mxPoint x="620" y="395" />
            </Array>
          </mxGeometry>
        </mxCell>
        <mxCell id="qqtoGIaQXKvuEJhqQhXc-18" value="" style="endArrow=classic;html=1;rounded=0;" edge="1" parent="1">
          <mxGeometry width="50" height="50" relative="1" as="geometry">
            <mxPoint x="160" y="485" as="sourcePoint" />
            <mxPoint x="720" y="485" as="targetPoint" />
            <Array as="points">
              <mxPoint x="480" y="485" />
              <mxPoint x="620" y="485" />
            </Array>
          </mxGeometry>
        </mxCell>
        <mxCell id="qqtoGIaQXKvuEJhqQhXc-19" value="" style="endArrow=classic;html=1;rounded=0;" edge="1" parent="1">
          <mxGeometry width="50" height="50" relative="1" as="geometry">
            <mxPoint x="160" y="645" as="sourcePoint" />
            <mxPoint x="720" y="645" as="targetPoint" />
            <Array as="points">
              <mxPoint x="480" y="645" />
              <mxPoint x="620" y="645" />
            </Array>
          </mxGeometry>
        </mxCell>
        <mxCell id="qqtoGIaQXKvuEJhqQhXc-20" value="&lt;font style=&quot;font-size: 18px;&quot;&gt;&lt;b&gt;Alta de Actividad Turística&lt;/b&gt;&lt;/font&gt;" style="text;html=1;align=center;verticalAlign=middle;resizable=0;points=[];autosize=1;strokeColor=none;fillColor=none;" vertex="1" parent="1">
          <mxGeometry x="291" y="60" width="250" height="40" as="geometry" />
        </mxCell>
        <mxCell id="qqtoGIaQXKvuEJhqQhXc-21" value="&lt;p style=&quot;margin:0px;margin-top:4px;text-align:center;&quot;&gt;&lt;b&gt;Actividad&lt;/b&gt;&lt;/p&gt;&lt;hr size=&quot;1&quot; style=&quot;border-style:solid;&quot;&gt;&lt;p style=&quot;margin:0px;margin-left:4px;&quot;&gt;- nombreActividad: String&lt;/p&gt;&lt;p style=&quot;margin:0px;margin-left:4px;&quot;&gt;- descripcion: String&lt;/p&gt;&lt;p style=&quot;margin:0px;margin-left:4px;&quot;&gt;- duracion: DuracionAct&lt;/p&gt;&lt;p style=&quot;margin:0px;margin-left:4px;&quot;&gt;- costoTurista: float&lt;/p&gt;&lt;p style=&quot;margin:0px;margin-left:4px;&quot;&gt;- ciudad: String&lt;/p&gt;&lt;p style=&quot;margin:0px;margin-left:4px;&quot;&gt;- fechaAlta: Date&lt;/p&gt;" style="verticalAlign=top;align=left;overflow=fill;html=1;whiteSpace=wrap;" vertex="1" parent="1">
          <mxGeometry x="910" y="215" width="160" height="120" as="geometry" />
        </mxCell>
        <mxCell id="qqtoGIaQXKvuEJhqQhXc-22" value="&lt;p style=&quot;margin:0px;margin-top:4px;text-align:center;&quot;&gt;&lt;b&gt;Proveedores&lt;/b&gt;&lt;/p&gt;&lt;hr size=&quot;1&quot; style=&quot;border-style:solid;&quot;&gt;&lt;p style=&quot;margin:0px;margin-left:4px;&quot;&gt;- descripcion: String&lt;/p&gt;&lt;p style=&quot;margin:0px;margin-left:4px;&quot;&gt;- sitioWeb: SitioWeb&lt;/p&gt;" style="verticalAlign=top;align=left;overflow=fill;html=1;whiteSpace=wrap;" vertex="1" parent="1">
          <mxGeometry x="910" y="385" width="160" height="70" as="geometry" />
        </mxCell>
      </root>
    </mxGraphModel>
  </diagram>
  <diagram id="BgpGrFFY5U0FJzXFxSKA" name="CU5_ConsultaDeActividadTuristica">
    <mxGraphModel dx="1281" dy="574" grid="1" gridSize="10" guides="1" tooltips="1" connect="1" arrows="1" fold="1" page="1" pageScale="1" pageWidth="827" pageHeight="1169" math="0" shadow="0">
      <root>
        <mxCell id="0" />
        <mxCell id="1" parent="0" />
        <mxCell id="3IbOntb_uvMvUU5lFpyu-1" value="" style="shape=umlLifeline;perimeter=lifelinePerimeter;whiteSpace=wrap;html=1;container=1;dropTarget=0;collapsible=0;recursiveResize=0;outlineConnect=0;portConstraint=eastwest;newEdgeStyle={&quot;curved&quot;:0,&quot;rounded&quot;:0};participant=umlActor;" vertex="1" parent="1">
          <mxGeometry x="310" y="175" width="20" height="580" as="geometry" />
        </mxCell>
        <mxCell id="3IbOntb_uvMvUU5lFpyu-2" value=":Sistema" style="shape=umlLifeline;perimeter=lifelinePerimeter;whiteSpace=wrap;html=1;container=1;dropTarget=0;collapsible=0;recursiveResize=0;outlineConnect=0;portConstraint=eastwest;newEdgeStyle={&quot;curved&quot;:0,&quot;rounded&quot;:0};" vertex="1" parent="1">
          <mxGeometry x="830" y="174" width="100" height="570" as="geometry" />
        </mxCell>
        <mxCell id="3IbOntb_uvMvUU5lFpyu-3" value="Administrador del sistema" style="text;html=1;align=center;verticalAlign=middle;resizable=0;points=[];autosize=1;strokeColor=none;fillColor=none;" vertex="1" parent="1">
          <mxGeometry x="250" y="135" width="160" height="30" as="geometry" />
        </mxCell>
        <mxCell id="3IbOntb_uvMvUU5lFpyu-4" value="" style="endArrow=classic;html=1;rounded=0;" edge="1" parent="1">
          <mxGeometry width="50" height="50" relative="1" as="geometry">
            <mxPoint x="320" y="295" as="sourcePoint" />
            <mxPoint x="880" y="295" as="targetPoint" />
            <Array as="points">
              <mxPoint x="620" y="295" />
            </Array>
          </mxGeometry>
        </mxCell>
        <mxCell id="3IbOntb_uvMvUU5lFpyu-5" value="listarActividades() : set(String)" style="text;html=1;align=center;verticalAlign=middle;resizable=0;points=[];autosize=1;strokeColor=none;fillColor=none;" vertex="1" parent="1">
          <mxGeometry x="475" y="263" width="180" height="30" as="geometry" />
        </mxCell>
        <mxCell id="3IbOntb_uvMvUU5lFpyu-6" value="seleccionarActividad(nombreActividad:String) : DtActividad" style="text;html=1;align=center;verticalAlign=middle;resizable=0;points=[];autosize=1;strokeColor=none;fillColor=none;" vertex="1" parent="1">
          <mxGeometry x="395" y="335" width="340" height="30" as="geometry" />
        </mxCell>
        <mxCell id="3IbOntb_uvMvUU5lFpyu-7" value="" style="endArrow=classic;html=1;rounded=0;" edge="1" parent="1">
          <mxGeometry width="50" height="50" relative="1" as="geometry">
            <mxPoint x="320" y="365" as="sourcePoint" />
            <mxPoint x="880" y="365" as="targetPoint" />
            <Array as="points">
              <mxPoint x="620" y="365" />
            </Array>
          </mxGeometry>
        </mxCell>
        <mxCell id="3IbOntb_uvMvUU5lFpyu-8" value="" style="endArrow=classic;html=1;rounded=0;" edge="1" parent="1">
          <mxGeometry width="50" height="50" relative="1" as="geometry">
            <mxPoint x="320" y="435" as="sourcePoint" />
            <mxPoint x="880" y="435" as="targetPoint" />
            <Array as="points">
              <mxPoint x="620" y="435" />
            </Array>
          </mxGeometry>
        </mxCell>
        <mxCell id="3IbOntb_uvMvUU5lFpyu-9" value="listarSalidasTristicas(nombreActividad: String) : set(String)" style="text;html=1;align=center;verticalAlign=middle;resizable=0;points=[];autosize=1;strokeColor=none;fillColor=none;" vertex="1" parent="1">
          <mxGeometry x="415" y="395" width="330" height="30" as="geometry" />
        </mxCell>
        <mxCell id="3IbOntb_uvMvUU5lFpyu-10" value="" style="endArrow=classic;html=1;rounded=0;" edge="1" parent="1">
          <mxGeometry width="50" height="50" relative="1" as="geometry">
            <mxPoint x="320" y="545" as="sourcePoint" />
            <mxPoint x="880" y="545" as="targetPoint" />
            <Array as="points">
              <mxPoint x="620" y="545" />
            </Array>
          </mxGeometry>
        </mxCell>
        <mxCell id="3IbOntb_uvMvUU5lFpyu-11" value="mostrarSalidaTuristica(nombreSalida: String) : DtSalidaTuristica" style="text;html=1;align=center;verticalAlign=middle;resizable=0;points=[];autosize=1;strokeColor=none;fillColor=none;" vertex="1" parent="1">
          <mxGeometry x="400" y="505" width="360" height="30" as="geometry" />
        </mxCell>
        <mxCell id="3IbOntb_uvMvUU5lFpyu-12" value="opt" style="shape=umlFrame;whiteSpace=wrap;html=1;pointerEvents=0;" vertex="1" parent="1">
          <mxGeometry x="250" y="462.5" width="700" height="115" as="geometry" />
        </mxCell>
        <mxCell id="3IbOntb_uvMvUU5lFpyu-13" value="[administrador selecciona salida turística]" style="text;html=1;align=center;verticalAlign=middle;resizable=0;points=[];autosize=1;strokeColor=none;fillColor=none;" vertex="1" parent="1">
          <mxGeometry x="330" y="462.5" width="240" height="30" as="geometry" />
        </mxCell>
        <mxCell id="3IbOntb_uvMvUU5lFpyu-14" value="&lt;b&gt;&lt;font style=&quot;font-size: 18px;&quot;&gt;Consulta de Actividad Turística&lt;/font&gt;&lt;/b&gt;" style="text;html=1;align=center;verticalAlign=middle;resizable=0;points=[];autosize=1;strokeColor=none;fillColor=none;" vertex="1" parent="1">
          <mxGeometry x="505" y="90" width="290" height="40" as="geometry" />
        </mxCell>
        <mxCell id="3IbOntb_uvMvUU5lFpyu-15" value="&lt;p style=&quot;margin:0px;margin-top:4px;text-align:center;&quot;&gt;&lt;b&gt;Actividad&lt;/b&gt;&lt;/p&gt;&lt;hr size=&quot;1&quot; style=&quot;border-style:solid;&quot;&gt;&lt;p style=&quot;margin:0px;margin-left:4px;&quot;&gt;- nombreActividad: String&lt;/p&gt;&lt;p style=&quot;margin:0px;margin-left:4px;&quot;&gt;- descripcion: String&lt;/p&gt;&lt;p style=&quot;margin:0px;margin-left:4px;&quot;&gt;- duracion: DuracionAct&lt;/p&gt;&lt;p style=&quot;margin:0px;margin-left:4px;&quot;&gt;- costoTurista: float&lt;/p&gt;&lt;p style=&quot;margin:0px;margin-left:4px;&quot;&gt;- ciudad: String&lt;/p&gt;&lt;p style=&quot;margin:0px;margin-left:4px;&quot;&gt;- fechaAlta: Date&lt;/p&gt;" style="verticalAlign=top;align=left;overflow=fill;html=1;whiteSpace=wrap;" vertex="1" parent="1">
          <mxGeometry x="1070" y="293" width="160" height="120" as="geometry" />
        </mxCell>
        <mxCell id="3IbOntb_uvMvUU5lFpyu-16" value="&lt;p style=&quot;margin:0px;margin-top:4px;text-align:center;&quot;&gt;&lt;b&gt;SalidaTuristica&lt;/b&gt;&lt;/p&gt;&lt;hr size=&quot;1&quot; style=&quot;border-style:solid;&quot;&gt;&lt;p style=&quot;margin:0px;margin-left:4px;&quot;&gt;- nombreSalida: String&lt;/p&gt;&lt;p style=&quot;margin:0px;margin-left:4px;&quot;&gt;- cantidadMaxTuristas: int&lt;/p&gt;&lt;p style=&quot;margin:0px;margin-left:4px;&quot;&gt;- lugarDeSalida: String&lt;/p&gt;&lt;p style=&quot;margin:0px;margin-left:4px;&quot;&gt;- fechaYHora: Date&lt;/p&gt;&lt;p style=&quot;margin:0px;margin-left:4px;&quot;&gt;- fechaAlta: Date&lt;/p&gt;" style="verticalAlign=top;align=left;overflow=fill;html=1;whiteSpace=wrap;" vertex="1" parent="1">
          <mxGeometry x="1070" y="465" width="160" height="110" as="geometry" />
        </mxCell>
      </root>
    </mxGraphModel>
  </diagram>
  <diagram id="xVIF0JPG55u9gp92Sdzf" name="CU6_AltaSalidaTurística">
    <mxGraphModel dx="857" dy="530" grid="1" gridSize="10" guides="1" tooltips="1" connect="1" arrows="1" fold="1" page="1" pageScale="1" pageWidth="827" pageHeight="1169" math="0" shadow="0">
      <root>
        <mxCell id="0" />
        <mxCell id="1" parent="0" />
        <mxCell id="pzkKndPzeNz1rRmVptk8-1" value="" style="shape=umlLifeline;perimeter=lifelinePerimeter;whiteSpace=wrap;html=1;container=1;dropTarget=0;collapsible=0;recursiveResize=0;outlineConnect=0;portConstraint=eastwest;newEdgeStyle={&quot;curved&quot;:0,&quot;rounded&quot;:0};participant=umlActor;" parent="1" vertex="1">
          <mxGeometry x="130" y="260" width="20" height="520" as="geometry" />
        </mxCell>
        <mxCell id="pzkKndPzeNz1rRmVptk8-2" value=":Sistema" style="shape=umlLifeline;perimeter=lifelinePerimeter;whiteSpace=wrap;html=1;container=1;dropTarget=0;collapsible=0;recursiveResize=0;outlineConnect=0;portConstraint=eastwest;newEdgeStyle={&quot;curved&quot;:0,&quot;rounded&quot;:0};" parent="1" vertex="1">
          <mxGeometry x="560" y="260" width="100" height="520" as="geometry" />
        </mxCell>
        <mxCell id="pzkKndPzeNz1rRmVptk8-3" value="Administrador del sistema" style="text;html=1;align=center;verticalAlign=middle;resizable=0;points=[];autosize=1;strokeColor=none;fillColor=none;" parent="1" vertex="1">
          <mxGeometry x="60" y="240" width="160" height="30" as="geometry" />
        </mxCell>
        <mxCell id="pzkKndPzeNz1rRmVptk8-4" value="Alta de Salida Turística" style="text;html=1;align=center;verticalAlign=middle;whiteSpace=wrap;rounded=0;fontStyle=1;fontSize=14;" parent="1" vertex="1">
          <mxGeometry x="280" y="210" width="170" height="30" as="geometry" />
        </mxCell>
        <mxCell id="1j0ZyH9wT-lzw3W2qOGG-1" value="listarActividadesTuristicas() : Set(DtActividadTuristica)" style="text;html=1;align=center;verticalAlign=middle;whiteSpace=wrap;rounded=0;" parent="1" vertex="1">
          <mxGeometry x="205" y="317" width="340" height="30" as="geometry" />
        </mxCell>
        <mxCell id="tczePkcNPr8WYHuojUWp-25" value="loop" style="shape=umlFrame;whiteSpace=wrap;html=1;pointerEvents=0;" parent="1" vertex="1">
          <mxGeometry x="90" y="360" width="570" height="250" as="geometry" />
        </mxCell>
        <mxCell id="tczePkcNPr8WYHuojUWp-26" value="ingresarDatosSalida(salida : DtSalidaTuristica) : existeSalida: boolean" style="text;html=1;align=center;verticalAlign=middle;whiteSpace=wrap;rounded=0;" parent="1" vertex="1">
          <mxGeometry x="130" y="396" width="470" height="30" as="geometry" />
        </mxCell>
        <mxCell id="tczePkcNPr8WYHuojUWp-31" value="alt" style="shape=umlFrame;whiteSpace=wrap;html=1;pointerEvents=0;" parent="1" vertex="1">
          <mxGeometry x="110" y="445" width="530" height="145" as="geometry" />
        </mxCell>
        <mxCell id="tczePkcNPr8WYHuojUWp-32" value="&lt;span style=&quot;color: rgb(0, 0, 0); font-family: Helvetica; font-size: 12px; font-style: normal; font-variant-ligatures: normal; font-variant-caps: normal; font-weight: 400; letter-spacing: normal; orphans: 2; text-align: center; text-indent: 0px; text-transform: none; widows: 2; word-spacing: 0px; -webkit-text-stroke-width: 0px; white-space: nowrap; background-color: rgb(251, 251, 251); text-decoration-thickness: initial; text-decoration-style: initial; text-decoration-color: initial; float: none; display: inline !important;&quot;&gt;[existeSalida == true]&lt;/span&gt;" style="text;whiteSpace=wrap;html=1;" parent="1" vertex="1">
          <mxGeometry x="175" y="445" width="180" height="40" as="geometry" />
        </mxCell>
        <mxCell id="tczePkcNPr8WYHuojUWp-34" value="ingresarDatosSalida(salida : DtSalidaTuristica) : existeSalida: boolean" style="text;html=1;align=center;verticalAlign=middle;whiteSpace=wrap;rounded=0;" parent="1" vertex="1">
          <mxGeometry x="163.87" y="466" width="422.25" height="30" as="geometry" />
        </mxCell>
        <mxCell id="tczePkcNPr8WYHuojUWp-38" value="cancelarOperacion()" style="text;html=1;align=center;verticalAlign=middle;whiteSpace=wrap;rounded=0;" parent="1" vertex="1">
          <mxGeometry x="189.5" y="532" width="351" height="30" as="geometry" />
        </mxCell>
        <mxCell id="3OehEtDIU_acXBAUeGZl-1" value="" style="endArrow=none;html=1;rounded=0;exitX=0.001;exitY=0.53;exitDx=0;exitDy=0;exitPerimeter=0;entryX=0.997;entryY=0.521;entryDx=0;entryDy=0;entryPerimeter=0;" parent="1" edge="1">
          <mxGeometry width="50" height="50" relative="1" as="geometry">
            <mxPoint x="110" y="521" as="sourcePoint" />
            <mxPoint x="637" y="520" as="targetPoint" />
          </mxGeometry>
        </mxCell>
        <mxCell id="fLtZLiVOVgdhCGBN7TZe-1" value="&lt;span style=&quot;background-color: rgb(251, 251, 251);&quot;&gt;[existeSalida == true&lt;/span&gt;&amp;nbsp;|| no&amp;nbsp;&lt;span style=&quot;text-wrap-mode: wrap;&quot;&gt;cancela&lt;/span&gt;]" style="text;html=1;align=center;verticalAlign=middle;resizable=0;points=[];autosize=1;strokeColor=none;fillColor=none;" parent="1" vertex="1">
          <mxGeometry x="145" y="360" width="210" height="30" as="geometry" />
        </mxCell>
        <mxCell id="5XpYzancZHQb3Wb0Prip-1" value="" style="endArrow=classic;html=1;rounded=0;" parent="1" edge="1">
          <mxGeometry width="50" height="50" relative="1" as="geometry">
            <mxPoint x="140.05" y="346" as="sourcePoint" />
            <mxPoint x="609.9590909090912" y="346" as="targetPoint" />
          </mxGeometry>
        </mxCell>
        <mxCell id="5XpYzancZHQb3Wb0Prip-2" value="" style="endArrow=classic;html=1;rounded=0;" parent="1" edge="1">
          <mxGeometry width="50" height="50" relative="1" as="geometry">
            <mxPoint x="140.05" y="428" as="sourcePoint" />
            <mxPoint x="609.959090909091" y="428" as="targetPoint" />
          </mxGeometry>
        </mxCell>
        <mxCell id="5XpYzancZHQb3Wb0Prip-3" value="" style="endArrow=classic;html=1;rounded=0;" parent="1" edge="1">
          <mxGeometry width="50" height="50" relative="1" as="geometry">
            <mxPoint x="140.05" y="496" as="sourcePoint" />
            <mxPoint x="609.9590909090912" y="496" as="targetPoint" />
          </mxGeometry>
        </mxCell>
        <mxCell id="5XpYzancZHQb3Wb0Prip-4" value="" style="endArrow=classic;html=1;rounded=0;" parent="1" edge="1">
          <mxGeometry width="50" height="50" relative="1" as="geometry">
            <mxPoint x="140.05" y="562" as="sourcePoint" />
            <mxPoint x="609.9590909090912" y="562" as="targetPoint" />
          </mxGeometry>
        </mxCell>
        <mxCell id="y9lq9-dpKfP-MIX61jX8-1" value="opt" style="shape=umlFrame;whiteSpace=wrap;html=1;pointerEvents=0;" vertex="1" parent="1">
          <mxGeometry x="90" y="640" width="590" height="100" as="geometry" />
        </mxCell>
        <mxCell id="y9lq9-dpKfP-MIX61jX8-2" value="" style="endArrow=classic;html=1;rounded=0;" edge="1" parent="1">
          <mxGeometry width="50" height="50" relative="1" as="geometry">
            <mxPoint x="140.45000000000005" y="710" as="sourcePoint" />
            <mxPoint x="610.3590909090912" y="710" as="targetPoint" />
          </mxGeometry>
        </mxCell>
        <mxCell id="y9lq9-dpKfP-MIX61jX8-3" value="confirmaAltaSalida()" style="text;html=1;align=center;verticalAlign=middle;resizable=0;points=[];autosize=1;strokeColor=none;fillColor=none;" vertex="1" parent="1">
          <mxGeometry x="319.9990909090909" y="680" width="130" height="30" as="geometry" />
        </mxCell>
        <mxCell id="lOygeSONNKmD9cuoKmcU-1" value="&lt;span style=&quot;color: rgb(0, 0, 0); font-family: Helvetica; font-size: 12px; font-style: normal; font-variant-ligatures: normal; font-variant-caps: normal; font-weight: 400; letter-spacing: normal; orphans: 2; text-align: center; text-indent: 0px; text-transform: none; widows: 2; word-spacing: 0px; -webkit-text-stroke-width: 0px; white-space: nowrap; background-color: rgb(251, 251, 251); text-decoration-thickness: initial; text-decoration-style: initial; text-decoration-color: initial; float: none; display: inline !important;&quot;&gt;[existeSalida == false]&lt;/span&gt;" style="text;whiteSpace=wrap;html=1;" vertex="1" parent="1">
          <mxGeometry x="163.87" y="650" width="180" height="40" as="geometry" />
        </mxCell>
      </root>
    </mxGraphModel>
  </diagram>
  <diagram name="CU7_ConsultaSalidaTurística " id="CCmBWcZ2vBuqBpk5D4J6">
    <mxGraphModel dx="685" dy="424" grid="1" gridSize="10" guides="1" tooltips="1" connect="1" arrows="1" fold="1" page="1" pageScale="1" pageWidth="827" pageHeight="1169" math="0" shadow="0">
      <root>
        <mxCell id="Fr1kP1A23iDJ-ouvAH8I-0" />
        <mxCell id="Fr1kP1A23iDJ-ouvAH8I-1" parent="Fr1kP1A23iDJ-ouvAH8I-0" />
        <mxCell id="Fr1kP1A23iDJ-ouvAH8I-5" value="Consulta de Salida Turística&amp;nbsp;" style="text;html=1;align=center;verticalAlign=middle;whiteSpace=wrap;rounded=0;fontStyle=1;fontSize=14;" parent="Fr1kP1A23iDJ-ouvAH8I-1" vertex="1">
          <mxGeometry x="250" y="215" width="230" height="30" as="geometry" />
        </mxCell>
        <mxCell id="Fr1kP1A23iDJ-ouvAH8I-6" value="" style="endArrow=classic;html=1;rounded=0;" parent="Fr1kP1A23iDJ-ouvAH8I-1" edge="1">
          <mxGeometry width="50" height="50" relative="1" as="geometry">
            <mxPoint x="139.590909090909" y="351" as="sourcePoint" />
            <mxPoint x="609.5" y="351" as="targetPoint" />
          </mxGeometry>
        </mxCell>
        <mxCell id="GOIqjO9FU0nLdbFI-mGY-0" value="" style="shape=umlLifeline;perimeter=lifelinePerimeter;whiteSpace=wrap;html=1;container=1;dropTarget=0;collapsible=0;recursiveResize=0;outlineConnect=0;portConstraint=eastwest;newEdgeStyle={&quot;curved&quot;:0,&quot;rounded&quot;:0};participant=umlActor;" parent="Fr1kP1A23iDJ-ouvAH8I-1" vertex="1">
          <mxGeometry x="130" y="265" width="20" height="420" as="geometry" />
        </mxCell>
        <mxCell id="GOIqjO9FU0nLdbFI-mGY-1" value=":Sistema" style="shape=umlLifeline;perimeter=lifelinePerimeter;whiteSpace=wrap;html=1;container=1;dropTarget=0;collapsible=0;recursiveResize=0;outlineConnect=0;portConstraint=eastwest;newEdgeStyle={&quot;curved&quot;:0,&quot;rounded&quot;:0};" parent="Fr1kP1A23iDJ-ouvAH8I-1" vertex="1">
          <mxGeometry x="560" y="265" width="100" height="420" as="geometry" />
        </mxCell>
        <mxCell id="GOIqjO9FU0nLdbFI-mGY-2" value="Administrador del sistema" style="text;html=1;align=center;verticalAlign=middle;resizable=0;points=[];autosize=1;strokeColor=none;fillColor=none;" parent="Fr1kP1A23iDJ-ouvAH8I-1" vertex="1">
          <mxGeometry x="60" y="245" width="160" height="30" as="geometry" />
        </mxCell>
        <mxCell id="GOIqjO9FU0nLdbFI-mGY-18" value="" style="endArrow=classic;html=1;rounded=0;" parent="Fr1kP1A23iDJ-ouvAH8I-1" edge="1">
          <mxGeometry width="50" height="50" relative="1" as="geometry">
            <mxPoint x="140.05" y="439" as="sourcePoint" />
            <mxPoint x="609.959090909091" y="439" as="targetPoint" />
          </mxGeometry>
        </mxCell>
        <mxCell id="8ErFxOSPLvvtg4N-gbUg-0" value="&lt;span style=&quot;text-wrap-mode: wrap;&quot;&gt;listarActividadesTuristicas&lt;/span&gt;():Set(String)" style="text;html=1;align=center;verticalAlign=middle;resizable=0;points=[];autosize=1;strokeColor=none;fillColor=none;" vertex="1" parent="Fr1kP1A23iDJ-ouvAH8I-1">
          <mxGeometry x="245" y="320" width="230" height="30" as="geometry" />
        </mxCell>
        <mxCell id="8ErFxOSPLvvtg4N-gbUg-1" value="listarSalidasActividad(nombreActividad : String) : Set(DtSalidaTuristica)" style="text;html=1;align=center;verticalAlign=middle;resizable=0;points=[];autosize=1;strokeColor=none;fillColor=none;" vertex="1" parent="Fr1kP1A23iDJ-ouvAH8I-1">
          <mxGeometry x="167" y="410" width="400" height="30" as="geometry" />
        </mxCell>
      </root>
    </mxGraphModel>
  </diagram>
  <diagram id="lkF13A3ko43AOOqY4pwa" name="CU9_ConsultaInscripcionesTuristicas">
    <mxGraphModel dx="979" dy="606" grid="1" gridSize="10" guides="1" tooltips="1" connect="1" arrows="1" fold="1" page="1" pageScale="1" pageWidth="1169" pageHeight="827" math="0" shadow="0">
      <root>
        <mxCell id="0" />
        <mxCell id="1" parent="0" />
        <mxCell id="rrGyvQhjakwDzqIsgcuD-1" value="" style="shape=umlLifeline;perimeter=lifelinePerimeter;whiteSpace=wrap;html=1;container=1;dropTarget=0;collapsible=0;recursiveResize=0;outlineConnect=0;portConstraint=eastwest;newEdgeStyle={&quot;curved&quot;:0,&quot;rounded&quot;:0};participant=umlActor;" parent="1" vertex="1">
          <mxGeometry x="70" y="100" width="20" height="570" as="geometry" />
        </mxCell>
        <mxCell id="rrGyvQhjakwDzqIsgcuD-2" value=":Sistema" style="shape=umlLifeline;perimeter=lifelinePerimeter;whiteSpace=wrap;html=1;container=1;dropTarget=0;collapsible=0;recursiveResize=0;outlineConnect=0;portConstraint=eastwest;newEdgeStyle={&quot;curved&quot;:0,&quot;rounded&quot;:0};" parent="1" vertex="1">
          <mxGeometry x="500" y="100" width="100" height="570" as="geometry" />
        </mxCell>
        <mxCell id="rrGyvQhjakwDzqIsgcuD-3" value="Administrador del sistema" style="text;html=1;align=center;verticalAlign=middle;resizable=0;points=[];autosize=1;strokeColor=none;fillColor=none;" parent="1" vertex="1">
          <mxGeometry y="60" width="160" height="30" as="geometry" />
        </mxCell>
        <mxCell id="rrGyvQhjakwDzqIsgcuD-4" value="Consulta Inscripciones Turisticas" style="text;html=1;align=center;verticalAlign=middle;whiteSpace=wrap;rounded=0;fontStyle=1;fontSize=14;" parent="1" vertex="1">
          <mxGeometry x="197.46000000000004" y="10" width="278" height="30" as="geometry" />
        </mxCell>
        <mxCell id="rrGyvQhjakwDzqIsgcuD-5" value="&lt;p style=&quot;margin: 4px 0px 0px; text-align: center;&quot;&gt;&lt;b&gt;DtActividad&lt;/b&gt;&lt;/p&gt;&lt;hr style=&quot;border-style: solid;&quot; size=&quot;1&quot;&gt;&lt;p style=&quot;margin: 0px 0px 0px 4px;&quot;&gt;- nombreActividad: String&lt;/p&gt;&lt;p style=&quot;margin: 0px 0px 0px 4px;&quot;&gt;- descripcion: String&lt;/p&gt;&lt;p style=&quot;margin: 0px 0px 0px 4px;&quot;&gt;- duracion: DuracionAct&lt;/p&gt;&lt;p style=&quot;margin: 0px 0px 0px 4px;&quot;&gt;- costoTurista: float&lt;/p&gt;&lt;p style=&quot;margin: 0px 0px 0px 4px;&quot;&gt;- ciudad: String&lt;/p&gt;&lt;p style=&quot;margin: 0px 0px 0px 4px;&quot;&gt;- fechaAlta: Date&lt;/p&gt;" style="verticalAlign=top;align=left;overflow=fill;html=1;whiteSpace=wrap;" parent="1" vertex="1">
          <mxGeometry x="650" y="360" width="182" height="130" as="geometry" />
        </mxCell>
        <mxCell id="rrGyvQhjakwDzqIsgcuD-6" value="" style="endArrow=classic;html=1;rounded=0;" parent="1" edge="1">
          <mxGeometry width="50" height="50" relative="1" as="geometry">
            <mxPoint x="79.59090909090901" y="191" as="sourcePoint" />
            <mxPoint x="549.5" y="191" as="targetPoint" />
          </mxGeometry>
        </mxCell>
        <mxCell id="rrGyvQhjakwDzqIsgcuD-7" value="&lt;span style=&quot;text-wrap-mode: wrap;&quot;&gt;listarActividadesTuristicas&lt;/span&gt;():Set(String)" style="text;html=1;align=center;verticalAlign=middle;resizable=0;points=[];autosize=1;strokeColor=none;fillColor=none;" parent="1" vertex="1">
          <mxGeometry x="200" y="161" width="230" height="30" as="geometry" />
        </mxCell>
        <mxCell id="rrGyvQhjakwDzqIsgcuD-8" value="" style="endArrow=classic;html=1;rounded=0;" parent="1" edge="1">
          <mxGeometry width="50" height="50" relative="1" as="geometry">
            <mxPoint x="80.05000000000001" y="260" as="sourcePoint" />
            <mxPoint x="549.959090909091" y="260" as="targetPoint" />
          </mxGeometry>
        </mxCell>
        <mxCell id="rrGyvQhjakwDzqIsgcuD-10" value="" style="endArrow=classic;html=1;rounded=0;" parent="1" edge="1">
          <mxGeometry width="50" height="50" relative="1" as="geometry">
            <mxPoint x="80.5" y="320" as="sourcePoint" />
            <mxPoint x="550.409090909091" y="320" as="targetPoint" />
          </mxGeometry>
        </mxCell>
        <mxCell id="rrGyvQhjakwDzqIsgcuD-12" value="&lt;p style=&quot;margin:0px;margin-top:4px;text-align:center;&quot;&gt;&lt;b&gt;DtSalida&lt;/b&gt;&lt;/p&gt;&lt;hr size=&quot;1&quot; style=&quot;border-style:solid;&quot;&gt;&lt;p style=&quot;margin:0px;margin-left:4px;&quot;&gt;- nombreSalida: String&lt;/p&gt;&lt;p style=&quot;margin:0px;margin-left:4px;&quot;&gt;- cantidadMaxTuristas: int&lt;/p&gt;&lt;p style=&quot;margin:0px;margin-left:4px;&quot;&gt;- lugarDeSalida: String&lt;/p&gt;&lt;p style=&quot;margin:0px;margin-left:4px;&quot;&gt;- fechaYHora: Date&lt;/p&gt;&lt;p style=&quot;margin:0px;margin-left:4px;&quot;&gt;- fechaAlta: Date&lt;/p&gt;" style="verticalAlign=top;align=left;overflow=fill;html=1;whiteSpace=wrap;" parent="1" vertex="1">
          <mxGeometry x="650" y="220" width="160" height="110" as="geometry" />
        </mxCell>
        <mxCell id="rrGyvQhjakwDzqIsgcuD-13" value="&lt;p style=&quot;margin:0px;margin-top:4px;text-align:center;&quot;&gt;&lt;b&gt;DTInscripcion&lt;/b&gt;&lt;/p&gt;&lt;hr size=&quot;1&quot; style=&quot;border-style:solid;&quot;&gt;&lt;p style=&quot;margin:0px;margin-left:4px;&quot;&gt;- cantidadTuristas: Int&lt;/p&gt;&lt;p style=&quot;margin:0px;margin-left:4px;&quot;&gt;- /costoTotal: float&lt;/p&gt;&lt;p style=&quot;margin:0px;margin-left:4px;&quot;&gt;- fechaInscripcion: Date&lt;/p&gt;" style="verticalAlign=top;align=left;overflow=fill;html=1;whiteSpace=wrap;" parent="1" vertex="1">
          <mxGeometry x="661" y="510" width="160" height="90" as="geometry" />
        </mxCell>
        <mxCell id="7eeGI1YM4m2fbPB1AlXB-1" value="listarSalidasActividad(nombreActividad : String) : Set(DtSalidaTuristica)" style="text;html=1;align=center;verticalAlign=middle;resizable=0;points=[];autosize=1;strokeColor=none;fillColor=none;" vertex="1" parent="1">
          <mxGeometry x="105" y="230" width="400" height="30" as="geometry" />
        </mxCell>
        <mxCell id="7eeGI1YM4m2fbPB1AlXB-2" value="listarInscripcionesSalida(nombreSalida : String):Set(DtInscripcionSalida)" style="text;html=1;align=center;verticalAlign=middle;resizable=0;points=[];autosize=1;strokeColor=none;fillColor=none;" vertex="1" parent="1">
          <mxGeometry x="110" y="290" width="410" height="30" as="geometry" />
        </mxCell>
      </root>
    </mxGraphModel>
  </diagram>
  <diagram id="IKVYwtOFRVf6pfugLvG0" name="CU11_RankingActividadTuristica">
    <mxGraphModel dx="734" dy="454" grid="1" gridSize="10" guides="1" tooltips="1" connect="1" arrows="1" fold="1" page="1" pageScale="1" pageWidth="1169" pageHeight="827" math="0" shadow="0">
      <root>
        <mxCell id="0" />
        <mxCell id="1" parent="0" />
        <mxCell id="V4i0Y58iCgyrkVRcxwVr-2" value="" style="shape=umlLifeline;perimeter=lifelinePerimeter;whiteSpace=wrap;html=1;container=1;dropTarget=0;collapsible=0;recursiveResize=0;outlineConnect=0;portConstraint=eastwest;newEdgeStyle={&quot;curved&quot;:0,&quot;rounded&quot;:0};participant=umlActor;" parent="1" vertex="1">
          <mxGeometry x="150" y="130" width="20" height="570" as="geometry" />
        </mxCell>
        <mxCell id="V4i0Y58iCgyrkVRcxwVr-3" value=":Sistema" style="shape=umlLifeline;perimeter=lifelinePerimeter;whiteSpace=wrap;html=1;container=1;dropTarget=0;collapsible=0;recursiveResize=0;outlineConnect=0;portConstraint=eastwest;newEdgeStyle={&quot;curved&quot;:0,&quot;rounded&quot;:0};" parent="1" vertex="1">
          <mxGeometry x="580" y="130" width="100" height="570" as="geometry" />
        </mxCell>
        <mxCell id="V4i0Y58iCgyrkVRcxwVr-4" value="Administrador del sistema" style="text;html=1;align=center;verticalAlign=middle;resizable=0;points=[];autosize=1;strokeColor=none;fillColor=none;" parent="1" vertex="1">
          <mxGeometry x="80" y="90" width="160" height="30" as="geometry" />
        </mxCell>
        <mxCell id="V4i0Y58iCgyrkVRcxwVr-5" value="Ranking Actividad Deportiva" style="text;html=1;align=center;verticalAlign=middle;whiteSpace=wrap;rounded=0;fontStyle=1;fontSize=14;" parent="1" vertex="1">
          <mxGeometry x="277.46000000000004" y="40" width="278" height="30" as="geometry" />
        </mxCell>
        <mxCell id="V4i0Y58iCgyrkVRcxwVr-7" value="" style="endArrow=classic;html=1;rounded=0;" parent="1" edge="1">
          <mxGeometry width="50" height="50" relative="1" as="geometry">
            <mxPoint x="159.590909090909" y="221" as="sourcePoint" />
            <mxPoint x="629.5" y="221" as="targetPoint" />
          </mxGeometry>
        </mxCell>
        <mxCell id="V4i0Y58iCgyrkVRcxwVr-8" value="consultarRankingActividades():Set(DtActividadConSalida)" style="text;html=1;align=center;verticalAlign=middle;resizable=0;points=[];autosize=1;strokeColor=none;fillColor=none;" parent="1" vertex="1">
          <mxGeometry x="230" y="191" width="330" height="30" as="geometry" />
        </mxCell>
        <mxCell id="Gm5odY9yfk9T1DA-FQ97-1" value="NOTAS: El dt esta definido en CU_2" style="text;html=1;align=center;verticalAlign=middle;resizable=0;points=[];autosize=1;strokeColor=none;fillColor=none;" vertex="1" parent="1">
          <mxGeometry x="700" y="250" width="220" height="30" as="geometry" />
        </mxCell>
      </root>
    </mxGraphModel>
  </diagram>
  <diagram id="6jNVnO2Shh2w277qSBLu" name="CU10_ModificarActividadTuristica">
    <mxGraphModel dx="685" dy="424" grid="1" gridSize="10" guides="1" tooltips="1" connect="1" arrows="1" fold="1" page="1" pageScale="1" pageWidth="1169" pageHeight="827" math="0" shadow="0">
      <root>
        <mxCell id="0" />
        <mxCell id="1" parent="0" />
        <mxCell id="92aYvUnKfXGkhV84wZ9s-1" value="Administrador del sistema" style="text;html=1;align=center;verticalAlign=middle;resizable=0;points=[];autosize=1;strokeColor=none;fillColor=none;" parent="1" vertex="1">
          <mxGeometry x="60" y="100" width="160" height="30" as="geometry" />
        </mxCell>
        <mxCell id="92aYvUnKfXGkhV84wZ9s-2" value="Modificar Actividad Turistica" style="text;html=1;align=center;verticalAlign=middle;whiteSpace=wrap;rounded=0;fontStyle=1;fontSize=14;" parent="1" vertex="1">
          <mxGeometry x="257.46000000000004" y="50" width="278" height="30" as="geometry" />
        </mxCell>
        <mxCell id="92aYvUnKfXGkhV84wZ9s-3" value="&lt;p style=&quot;margin: 4px 0px 0px; text-align: center;&quot;&gt;&lt;b&gt;DtActividad&lt;/b&gt;&lt;/p&gt;&lt;hr style=&quot;border-style: solid;&quot; size=&quot;1&quot;&gt;&lt;p style=&quot;margin: 0px 0px 0px 4px;&quot;&gt;- nombreActividad: String&lt;/p&gt;&lt;p style=&quot;margin: 0px 0px 0px 4px;&quot;&gt;- descripcion: String&lt;/p&gt;&lt;p style=&quot;margin: 0px 0px 0px 4px;&quot;&gt;- duracion: DuracionAct&lt;/p&gt;&lt;p style=&quot;margin: 0px 0px 0px 4px;&quot;&gt;- costoTurista: float&lt;/p&gt;&lt;p style=&quot;margin: 0px 0px 0px 4px;&quot;&gt;- ciudad: String&lt;/p&gt;&lt;p style=&quot;margin: 0px 0px 0px 4px;&quot;&gt;- fechaAlta: Date&lt;/p&gt;" style="verticalAlign=top;align=left;overflow=fill;html=1;whiteSpace=wrap;" parent="1" vertex="1">
          <mxGeometry x="710" y="400" width="182" height="130" as="geometry" />
        </mxCell>
        <mxCell id="92aYvUnKfXGkhV84wZ9s-4" value="" style="endArrow=classic;html=1;rounded=0;" parent="1" edge="1">
          <mxGeometry width="50" height="50" relative="1" as="geometry">
            <mxPoint x="139.590909090909" y="231" as="sourcePoint" />
            <mxPoint x="609.5" y="231" as="targetPoint" />
          </mxGeometry>
        </mxCell>
        <mxCell id="92aYvUnKfXGkhV84wZ9s-5" value="&lt;span style=&quot;text-wrap-mode: wrap;&quot;&gt;listarActividadesTuristicas&lt;/span&gt;():Set(String)" style="text;html=1;align=center;verticalAlign=middle;resizable=0;points=[];autosize=1;strokeColor=none;fillColor=none;" parent="1" vertex="1">
          <mxGeometry x="260" y="201" width="230" height="30" as="geometry" />
        </mxCell>
        <mxCell id="92aYvUnKfXGkhV84wZ9s-6" value="" style="endArrow=classic;html=1;rounded=0;" parent="1" edge="1">
          <mxGeometry width="50" height="50" relative="1" as="geometry">
            <mxPoint x="140.04999999999995" y="300" as="sourcePoint" />
            <mxPoint x="609.959090909091" y="300" as="targetPoint" />
          </mxGeometry>
        </mxCell>
        <mxCell id="92aYvUnKfXGkhV84wZ9s-7" value="consultarActividadTuristica(nombreActividad: String) : DtActividadTuristica" style="text;html=1;align=center;verticalAlign=middle;resizable=0;points=[];autosize=1;strokeColor=none;fillColor=none;" parent="1" vertex="1">
          <mxGeometry x="165.45909090909095" y="270" width="420" height="30" as="geometry" />
        </mxCell>
        <mxCell id="92aYvUnKfXGkhV84wZ9s-8" value="opt" style="shape=umlFrame;whiteSpace=wrap;html=1;pointerEvents=0;" parent="1" vertex="1">
          <mxGeometry x="70" y="330" width="590" height="70" as="geometry" />
        </mxCell>
        <mxCell id="92aYvUnKfXGkhV84wZ9s-9" value="" style="endArrow=classic;html=1;rounded=0;" parent="1" edge="1">
          <mxGeometry width="50" height="50" relative="1" as="geometry">
            <mxPoint x="140.5" y="374" as="sourcePoint" />
            <mxPoint x="610.409090909091" y="374" as="targetPoint" />
          </mxGeometry>
        </mxCell>
        <mxCell id="92aYvUnKfXGkhV84wZ9s-10" value="setDescripcion(descripcion : String)" style="text;html=1;align=center;verticalAlign=middle;resizable=0;points=[];autosize=1;strokeColor=none;fillColor=none;" parent="1" vertex="1">
          <mxGeometry x="260.04909090909086" y="344" width="210" height="30" as="geometry" />
        </mxCell>
        <mxCell id="92aYvUnKfXGkhV84wZ9s-11" value="opt" style="shape=umlFrame;whiteSpace=wrap;html=1;pointerEvents=0;" parent="1" vertex="1">
          <mxGeometry x="70.04999999999995" y="420" width="590" height="70" as="geometry" />
        </mxCell>
        <mxCell id="92aYvUnKfXGkhV84wZ9s-12" value="" style="endArrow=classic;html=1;rounded=0;" parent="1" edge="1">
          <mxGeometry width="50" height="50" relative="1" as="geometry">
            <mxPoint x="140.55000000000007" y="464" as="sourcePoint" />
            <mxPoint x="610.4590909090912" y="464" as="targetPoint" />
          </mxGeometry>
        </mxCell>
        <mxCell id="92aYvUnKfXGkhV84wZ9s-13" value="setDuracion(duracion : DuracionAct)" style="text;html=1;align=center;verticalAlign=middle;resizable=0;points=[];autosize=1;strokeColor=none;fillColor=none;" parent="1" vertex="1">
          <mxGeometry x="255.09909090909082" y="434" width="220" height="30" as="geometry" />
        </mxCell>
        <mxCell id="92aYvUnKfXGkhV84wZ9s-14" value="opt" style="shape=umlFrame;whiteSpace=wrap;html=1;pointerEvents=0;" parent="1" vertex="1">
          <mxGeometry x="70" y="500" width="590" height="70" as="geometry" />
        </mxCell>
        <mxCell id="92aYvUnKfXGkhV84wZ9s-15" value="" style="endArrow=classic;html=1;rounded=0;" parent="1" edge="1">
          <mxGeometry width="50" height="50" relative="1" as="geometry">
            <mxPoint x="140.5" y="544" as="sourcePoint" />
            <mxPoint x="610.409090909091" y="544" as="targetPoint" />
          </mxGeometry>
        </mxCell>
        <mxCell id="92aYvUnKfXGkhV84wZ9s-16" value="setCostoTurista(costo : float)" style="text;html=1;align=center;verticalAlign=middle;resizable=0;points=[];autosize=1;strokeColor=none;fillColor=none;" parent="1" vertex="1">
          <mxGeometry x="275.04909090909086" y="514" width="180" height="30" as="geometry" />
        </mxCell>
        <mxCell id="92aYvUnKfXGkhV84wZ9s-17" value="opt" style="shape=umlFrame;whiteSpace=wrap;html=1;pointerEvents=0;" parent="1" vertex="1">
          <mxGeometry x="70" y="580" width="590" height="70" as="geometry" />
        </mxCell>
        <mxCell id="92aYvUnKfXGkhV84wZ9s-18" value="" style="endArrow=classic;html=1;rounded=0;" parent="1" edge="1">
          <mxGeometry width="50" height="50" relative="1" as="geometry">
            <mxPoint x="140.5" y="624" as="sourcePoint" />
            <mxPoint x="610.409090909091" y="624" as="targetPoint" />
          </mxGeometry>
        </mxCell>
        <mxCell id="92aYvUnKfXGkhV84wZ9s-19" value="setCiudad(ciudad : String)" style="text;html=1;align=center;verticalAlign=middle;resizable=0;points=[];autosize=1;strokeColor=none;fillColor=none;" parent="1" vertex="1">
          <mxGeometry x="285.04909090909086" y="594" width="160" height="30" as="geometry" />
        </mxCell>
        <mxCell id="zPFAdgz9svby4xYROtBi-5" value="" style="shape=umlLifeline;perimeter=lifelinePerimeter;whiteSpace=wrap;html=1;container=1;dropTarget=0;collapsible=0;recursiveResize=0;outlineConnect=0;portConstraint=eastwest;newEdgeStyle={&quot;curved&quot;:0,&quot;rounded&quot;:0};participant=umlActor;" vertex="1" parent="1">
          <mxGeometry x="130" y="140" width="20" height="570" as="geometry" />
        </mxCell>
        <mxCell id="zPFAdgz9svby4xYROtBi-6" value=":Sistema" style="shape=umlLifeline;perimeter=lifelinePerimeter;whiteSpace=wrap;html=1;container=1;dropTarget=0;collapsible=0;recursiveResize=0;outlineConnect=0;portConstraint=eastwest;newEdgeStyle={&quot;curved&quot;:0,&quot;rounded&quot;:0};" vertex="1" parent="1">
          <mxGeometry x="560" y="140" width="100" height="570" as="geometry" />
        </mxCell>
      </root>
    </mxGraphModel>
  </diagram>
</mxfile>
